<svg xmlns="http://www.w3.org/2000/svg" version="1.1" xmlns:xlink="http://www.w3.org/1999/xlink" xmlns:svgjs="http://svgjs.com/svgjs" width="1440" height="560" preserveAspectRatio="none" viewBox="0 0 1440 560">
    <g mask="url(&quot;#SvgjsMask1000&quot;)" fill="none">
        <rect width="100%" height="100%" x="0" y="0" fill="#0e2a47"></rect>
        <path d="M0,408.011C79.591,403.505,155.811,388.422,228.286,355.221C310.338,317.633,407.21,285.172,446.02,203.691C484.899,122.064,447.963,26.528,426.701,-61.35C407.201,-141.949,375.515,-216.248,327.979,-284.195C275.881,-358.663,226.937,-450.516,138.834,-472.824C50.964,-495.073,-29.939,-423.654,-116.492,-396.735C-201.324,-370.351,-294.032,-369.775,-364.873,-316.164C-444.951,-255.562,-509.104,-173.46,-538.435,-77.415C-570.462,27.459,-595.154,152.414,-536.208,244.878C-477.423,337.089,-350.146,350.217,-245.526,382.046C-165.163,406.495,-83.866,412.759,0,408.011" fill="#0b2239"></path>
        <path d="M1440 1079.962C1535.364 1071.834 1597.425 980.567 1670.747 919.05 1734.585 865.491 1790.9859999999999 809.692 1841.305 743.27 1905.106 659.052 1999.995 584.451 2004.2069999999999 478.879 2008.527 370.598 1950.426 257.624 1863.25 193.252 1779.4769999999999 131.394 1662.189 171.531 1560.107 150.952 1469.792 132.745 1387.358 53.69900000000001 1298.909 79.48700000000002 1210.452 105.27800000000002 1166.046 202.122 1117.022 280.138 1074.191 348.298 1055.559 424.111 1033.672 501.579 1008.248 591.565 949.5550000000001 681.858 978.393 770.809 1007.642 861.028 1103.7060000000001 907.889 1182.508 960.665 1262.729 1014.392 1343.799 1088.162 1440 1079.962" fill="#113255"></path>
    </g>
    <defs>
        <mask id="SvgjsMask1000">
            <rect width="100%" height="100%" fill="#ffffff"></rect>
        </mask>
    </defs>
</svg>